<svg width="18" height="18" viewBox="0 0 18 18" fill="none" xmlns="http://www.w3.org/2000/svg">
<g id="noto:coin" clip-path="url(#clip0_151_2108)">
<path id="Vector" d="M9.00009 17.4291C13.455 17.4291 17.0663 13.8177 17.0663 9.36288C17.0663 4.90801 13.455 1.29663 9.00009 1.29663C4.54522 1.29663 0.933838 4.90801 0.933838 9.36288C0.933838 13.8177 4.54522 17.4291 9.00009 17.4291Z" fill="#D68F30"/>
<path id="Vector_2" d="M1.48218 11.4582V12.2823C1.56655 12.5002 1.66077 12.7154 1.76343 12.9235V11.4582H1.48218ZM2.40187 13.0093V13.9993C2.51437 14.1582 2.63108 14.3143 2.75343 14.4648V13.0093H2.40187ZM3.61968 14.303V15.3704C3.75608 15.4927 3.89671 15.6094 4.04155 15.7219V14.303H3.61968ZM5.11874 15.286V16.4335C5.25655 16.5094 5.39718 16.5812 5.54062 16.6501V15.286H5.11874ZM6.8189 15.9118V17.1268C6.95812 17.1662 7.09874 17.2013 7.24077 17.2337V15.9118H6.8189ZM8.80874 16.1283V17.4235C8.87202 17.4249 8.9353 17.4277 8.99999 17.4277C9.07733 17.4277 9.15468 17.4235 9.23062 17.4221V16.1283H8.80874ZM10.7986 15.9019V17.2238C10.9406 17.1915 11.0812 17.1549 11.2205 17.1155V15.9019H10.7986ZM12.4945 15.2677V16.6332C12.638 16.5643 12.7786 16.4898 12.9164 16.4124V15.2677H12.4945ZM13.9894 14.2763V15.6966C14.1341 15.5835 14.2748 15.4653 14.4112 15.3423V14.2763H13.9894ZM15.622 12.9783H15.2705V14.4338C15.3928 14.2819 15.5109 14.1258 15.622 13.9655V12.9783ZM16.5361 11.4216H16.2548V12.8898C16.3575 12.6774 16.4517 12.4594 16.5361 12.2387V11.4216Z" fill="#BC6F00"/>
<path id="Vector_3" d="M9.00009 16.7033C13.455 16.7033 17.0663 13.0919 17.0663 8.63705C17.0663 4.18218 13.455 0.570801 9.00009 0.570801C4.54522 0.570801 0.933838 4.18218 0.933838 8.63705C0.933838 13.0919 4.54522 16.7033 9.00009 16.7033Z" fill="#FFF176"/>
<path id="Vector_4" d="M9 15.9849C13.058 15.9849 16.3477 12.6952 16.3477 8.63721C16.3477 4.57921 13.058 1.28955 9 1.28955C4.942 1.28955 1.65234 4.57921 1.65234 8.63721C1.65234 12.6952 4.942 15.9849 9 15.9849Z" fill="#F2BC1A"/>
<path id="Vector_5" d="M1.63825 8.91836C1.58621 7.95086 1.75356 6.9693 2.09106 6.04961C2.44262 5.13273 2.98121 4.28477 3.66043 3.56477C5.0245 2.12195 7.0045 1.28523 8.99996 1.27539C10.9954 1.28664 12.9768 2.12195 14.3381 3.56617C15.0187 4.28477 15.5559 5.13414 15.9075 6.04961C16.2464 6.9707 16.4137 7.95086 16.3603 8.91836H16.3322C16.3294 7.9532 16.1383 6.99784 15.7697 6.10586C15.4003 5.21488 14.8611 4.40433 14.182 3.71945C13.5025 3.03525 12.6949 2.49148 11.8054 2.11914C10.9162 1.74787 9.96217 1.5567 8.99856 1.5567C8.03494 1.5567 7.0809 1.74787 6.19168 2.11914C5.30217 2.49148 4.49463 3.03525 3.81512 3.71945C3.13557 4.40396 2.59625 5.2146 2.22746 6.10586C1.8588 6.99784 1.66773 7.9532 1.66496 8.91836H1.63825Z" fill="#E08F00"/>
<path id="Vector_6" d="M9.00009 0.572266C4.54509 0.572266 0.933838 4.18352 0.933838 8.63852C0.933838 13.0935 4.54509 16.7048 9.00009 16.7048C13.4551 16.7048 17.0663 13.0935 17.0663 8.63852C17.0663 4.18352 13.4551 0.572266 9.00009 0.572266ZM9.00009 15.9862C4.94165 15.9862 1.65243 12.697 1.65243 8.63852C1.65243 4.57867 4.94165 1.28945 9.00009 1.28945C13.0585 1.28945 16.3477 4.57867 16.3477 8.63711C16.3477 12.6955 13.0585 15.9862 9.00009 15.9862Z" fill="#FFF176"/>
<path id="Vector_7" d="M5.34237 3.00244L5.52097 3.5551L6.10315 3.33291V3.5551L5.63206 3.89682L5.81206 4.22588V4.44947L5.34237 4.10775L4.87128 4.44947V4.22588L5.05128 3.89682L4.58159 3.5551V3.33291L5.16237 3.5551L5.34237 3.00244ZM3.09519 6.17494L3.27519 6.7276L3.85597 6.50541V6.7276L3.38628 7.06932L3.56628 7.39979V7.62197L3.09519 7.28025L2.6255 7.62197V7.39979L2.8055 7.06932L2.3344 6.7276V6.50541L2.91659 6.7276L3.09519 6.17494ZM3.02909 10.0857L3.20909 10.6384L3.78987 10.4162V10.6384L3.32019 10.9801L3.50019 11.3106V11.5328L3.02909 11.191L2.5594 11.5328V11.3106L2.7394 10.9801L2.26831 10.6384V10.4162L2.8505 10.6384L3.02909 10.0857ZM5.42815 13.1907L5.60815 13.7434L6.18894 13.5212V13.7434L5.71925 14.0851L5.89925 14.4142V14.6378L5.42815 14.296L4.95847 14.6378V14.4142L5.13847 14.0851L4.66737 13.7434V13.5212L5.24956 13.7434L5.42815 13.1907ZM12.6577 3.00244L12.4791 3.5551L11.8969 3.33291V3.5551L12.368 3.89682L12.188 4.22588V4.44947L12.6577 4.10775L13.1288 4.44947V4.22588L12.9488 3.89682L13.4185 3.5551V3.33291L12.8377 3.5551L12.6577 3.00244ZM14.9049 6.17494L14.7249 6.7276L14.1441 6.50541V6.7276L14.6138 7.06932L14.4338 7.39979V7.62197L14.9049 7.28025L15.3746 7.62197V7.39979L15.1946 7.06932L15.6657 6.7276V6.50541L15.0835 6.7276L14.9049 6.17494ZM14.971 10.0857L14.791 10.6384L14.2102 10.4162V10.6384L14.6799 10.9801L14.4999 11.3106V11.5328L14.971 11.191L15.4407 11.5328V11.3106L15.2607 10.9801L15.7317 10.6384V10.4162L15.1496 10.6384L14.971 10.0857ZM12.5719 13.1907L12.3919 13.7434L11.8111 13.5212V13.7434L12.2808 14.0851L12.1008 14.4142V14.6378L12.5719 14.296L13.0416 14.6378V14.4142L12.8616 14.0851L13.3327 13.7434V13.5212L12.7505 13.7434L12.5719 13.1907Z" fill="#D38200"/>
<path id="Vector_8" d="M12.5718 12.9671L12.7504 13.5197H13.3326L12.8615 13.8615L13.0415 14.4141L12.5718 14.0724L12.1007 14.4141L12.2807 13.8615L11.811 13.5197H12.3918L12.5718 12.9671ZM14.9709 9.8635L15.1495 10.4162H15.7317L15.2606 10.7579L15.4406 11.3105L14.9709 10.9688L14.4998 11.3105L14.6798 10.7579L14.2101 10.4162H14.7909L14.9709 9.8635ZM14.9048 5.95272L15.0834 6.50537H15.6656L15.1945 6.84709L15.3745 7.39975L14.9048 7.05803L14.4337 7.39975L14.6137 6.84709L14.144 6.50537H14.7248L14.9048 5.95272ZM12.6576 2.77881L12.8376 3.33146H13.4184L12.9487 3.67318L13.1287 4.22584L12.6576 3.88412L12.1879 4.22584L12.3679 3.67318L11.8968 3.33146H12.479L12.6576 2.77881Z" fill="#FFF176"/>
<path id="Vector_9" d="M9.00712 14.4141L9.18712 14.9667L9.7679 14.7445V14.9667L9.29821 15.3084L9.47821 15.6389V15.8611L9.00712 15.5194L8.53743 15.8611V15.6389L8.71743 15.3084L8.24634 14.9667V14.7445L8.82853 14.9667L9.00712 14.4141Z" fill="#D38200"/>
<path id="Vector_10" d="M9.00712 14.1187L9.18712 14.6713H9.7679L9.29821 15.013L9.47821 15.5657L9.00712 15.224L8.53743 15.5657L8.71743 15.013L8.24634 14.6713H8.82853L9.00712 14.1187Z" fill="#FFF176"/>
<path id="Vector_11" d="M9.00712 1.81274L9.18712 2.3654L9.7679 2.14321V2.3654L9.29821 2.70712L9.47821 3.03759V3.25978L9.00712 2.91806L8.53743 3.25978V3.03759L8.71743 2.70712L8.24634 2.3654V2.14321L8.82853 2.3654L9.00712 1.81274Z" fill="#D38200"/>
<path id="Vector_12" d="M9.00706 1.59033L9.18706 2.14299H9.76784L9.29816 2.48471L9.47816 3.03736L9.00706 2.69564L8.53737 3.03736L8.71737 2.48471L8.24628 2.14299H8.82847L9.00706 1.59033ZM5.42815 12.9669L5.24956 13.5196H4.66737L5.13847 13.8613L4.95847 14.4139L5.42815 14.0722L5.89925 14.4139L5.71925 13.8613L6.18894 13.5196H5.60816L5.42815 12.9669ZM3.02909 9.8633L2.8505 10.416H2.26831L2.7394 10.7577L2.5594 11.3103L3.02909 10.9686L3.50019 11.3103L3.32019 10.7577L3.78987 10.416H3.20909L3.02909 9.8633ZM3.09519 5.95252L2.91659 6.50518H2.3344L2.8055 6.84689L2.6255 7.39955L3.09519 7.05783L3.56628 7.39955L3.38628 6.84689L3.85597 6.50518H3.27519L3.09519 5.95252ZM5.34237 2.77861L5.16237 3.33127H4.58159L5.05128 3.67299L4.87128 4.22564L5.34237 3.88393L5.81206 4.22564L5.63206 3.67299L6.10316 3.33127H5.52097L5.34237 2.77861Z" fill="#FFF176"/>
<path id="Vector_13" d="M13.3902 6.77822C13.3902 6.729 4.61802 6.77822 4.61802 6.77822L4.53927 7.01447V7.41807C4.53927 7.49119 4.59833 7.55025 4.67146 7.55025H13.3283C13.4015 7.55025 13.4605 7.49119 13.4605 7.41807V7.02572L13.3902 6.77822ZM13.4029 12.0235H4.65458L4.06958 12.3174L4.07661 12.6957C4.07802 12.7365 4.11177 12.7703 4.15396 12.7703H13.8472C13.888 12.7703 13.9232 12.7379 13.9246 12.6957L13.9316 12.3245L13.4029 12.0235Z" fill="#D38200"/>
<path id="Vector_14" d="M6.06507 10.8732H5.56163C5.47866 10.8732 5.41116 10.6117 5.41116 10.5287L6.21413 10.5034C6.21413 10.5863 6.14663 10.8732 6.06507 10.8732ZM6.23663 8.15775H5.38866C5.32538 8.15775 5.27054 8.11557 5.25226 8.0551L5.18616 7.50244H6.42788L6.37163 8.0551C6.35476 8.11557 6.29991 8.15775 6.23663 8.15775ZM5.38866 11.0406H6.23663C6.29991 11.0406 6.42507 11.0799 6.44194 11.1404C6.44194 11.1404 6.43772 11.4034 6.43772 11.5074C6.43772 11.6115 6.39554 11.6874 6.30132 11.6874H5.32397C5.22976 11.6874 5.18757 11.6031 5.18757 11.5074C5.18757 11.4118 5.18335 11.1432 5.18335 11.1432C5.20163 11.0828 5.32538 11.0406 5.38866 11.0406ZM12.6041 10.8732H12.1007C12.0177 10.8732 11.9502 10.6117 11.9502 10.5287L12.7532 10.5034C12.7532 10.5863 12.6871 10.8732 12.6041 10.8732ZM12.7757 8.15775H11.9277C11.8644 8.15775 11.8096 8.11557 11.7913 8.0551L11.7252 7.50244H12.9669L12.9107 8.0551C12.8938 8.11557 12.839 8.15775 12.7757 8.15775ZM11.9277 11.0406H12.7757C12.839 11.0406 12.9641 11.0799 12.981 11.1404C12.981 11.1404 12.9768 11.4034 12.9768 11.5074C12.9768 11.6115 12.9346 11.6874 12.8404 11.6874H11.863C11.7688 11.6874 11.7266 11.6031 11.7266 11.5074C11.7266 11.4118 11.7224 11.1432 11.7224 11.1432C11.7407 11.0828 11.8644 11.0406 11.9277 11.0406ZM10.4244 10.8732H9.92101C9.83804 10.8732 9.77054 10.6117 9.77054 10.5287L10.5735 10.5034C10.5735 10.5863 10.5074 10.8732 10.4244 10.8732ZM10.596 8.15775H9.74804C9.68476 8.15775 9.62991 8.11557 9.61163 8.0551L9.54554 7.50244H10.7873L10.731 8.0551C10.7141 8.11557 10.6593 8.15775 10.596 8.15775ZM9.74804 11.0406H10.596C10.6593 11.0406 10.7844 11.0799 10.8013 11.1404C10.8013 11.1404 10.7971 11.4034 10.7971 11.5074C10.7971 11.6115 10.7549 11.6874 10.6607 11.6874H9.68335C9.58913 11.6874 9.54694 11.6031 9.54694 11.5074C9.54694 11.4118 9.54273 11.1432 9.54273 11.1432C9.56101 11.0828 9.68476 11.0406 9.74804 11.0406ZM8.24476 10.8732H7.74132C7.65835 10.8732 7.59085 10.6117 7.59085 10.5287L8.39382 10.5034C8.39382 10.5863 8.32772 10.8732 8.24476 10.8732ZM8.41632 8.15775H7.56835C7.50507 8.15775 7.45022 8.11557 7.43194 8.0551L7.36585 7.50244H8.60757L8.55132 8.0551C8.53444 8.11557 8.4796 8.15775 8.41632 8.15775ZM7.56835 11.0406H8.41632C8.4796 11.0406 8.60476 11.0799 8.62163 11.1404C8.62163 11.1404 8.61741 11.4034 8.61741 11.5074C8.61741 11.6115 8.57523 11.6874 8.48101 11.6874H7.50366C7.40944 11.6874 7.36726 11.6031 7.36726 11.5074C7.36726 11.4118 7.36304 11.1432 7.36304 11.1432C7.38132 11.0828 7.50507 11.0406 7.56835 11.0406Z" fill="#D38200"/>
<path id="Vector_15" d="M13.4535 6.40138C13.4535 6.35216 13.4282 6.30575 13.3902 6.28325L9.00556 3.79419L4.61524 6.28044C4.57306 6.30575 4.54634 6.35216 4.54634 6.40138L4.53931 7.01591C4.53931 7.09325 4.60259 7.15653 4.67993 7.15653H13.3185C13.3959 7.15653 13.4592 7.09325 13.4592 7.01591L13.4535 6.40138Z" fill="#FFF176"/>
<path id="Vector_16" d="M12.3525 6.23396L8.99996 4.3313L5.64746 6.23396H12.3525Z" fill="#F2BC1A"/>
<path id="Vector_17" d="M11.1193 6.00185L9.00008 4.7981L6.88086 6.00185H11.1193ZM13.133 11.534H4.86711C4.78554 11.534 4.7082 11.5692 4.65336 11.6297L4.08523 12.2639C4.04586 12.3075 4.07679 12.3764 4.13586 12.3764H13.8643C13.922 12.3764 13.9529 12.3075 13.9149 12.2639L13.3454 11.6297C13.292 11.5692 13.2132 11.534 13.133 11.534ZM12.6043 10.6186H12.1009C12.0179 10.6186 11.9504 10.5511 11.9504 10.4681V8.22091C11.9504 8.13794 12.0179 8.07044 12.1009 8.07044H12.6043C12.6873 8.07044 12.7548 8.13794 12.7548 8.22091V10.4695C12.7548 10.5525 12.6873 10.6186 12.6043 10.6186ZM12.7773 7.9031H11.9293C11.866 7.9031 11.8112 7.86091 11.7929 7.80044L11.7282 7.57685C11.7015 7.48685 11.7704 7.39685 11.8646 7.39685H12.842C12.9362 7.39685 13.0037 7.48685 12.9784 7.57685L12.9137 7.80044C12.8954 7.86091 12.8391 7.9031 12.7773 7.9031ZM11.9279 10.7873H12.7759C12.8391 10.7873 12.894 10.8295 12.9123 10.89L12.977 11.1136C13.0037 11.2036 12.9348 11.2936 12.8405 11.2936H11.8632C11.769 11.2936 11.7015 11.2036 11.7268 11.1136L11.7915 10.89C11.8098 10.8281 11.866 10.7873 11.9279 10.7873ZM6.06523 10.6186H5.56179C5.47883 10.6186 5.41133 10.5511 5.41133 10.4681V8.22091C5.41133 8.13794 5.47883 8.07044 5.56179 8.07044H6.06523C6.1482 8.07044 6.2157 8.13794 6.2157 8.22091V10.4695C6.21429 10.5525 6.14679 10.6186 6.06523 10.6186ZM6.23679 7.9031H5.38883C5.32554 7.9031 5.2707 7.86091 5.25242 7.80044L5.18773 7.57685C5.16101 7.48685 5.22992 7.39685 5.32414 7.39685H6.30148C6.3957 7.39685 6.4632 7.48685 6.43789 7.57685L6.3732 7.80044C6.35492 7.86091 6.30008 7.9031 6.23679 7.9031ZM5.38883 10.7873H6.23679C6.30008 10.7873 6.35492 10.8295 6.3732 10.89L6.43789 11.1136C6.46461 11.2036 6.3957 11.2936 6.30148 11.2936H5.32414C5.22992 11.2936 5.16242 11.2036 5.18773 11.1136L5.25242 10.89C5.2707 10.8281 5.32554 10.7873 5.38883 10.7873ZM8.24492 10.6186H7.74148C7.65851 10.6186 7.59101 10.5511 7.59101 10.4681V8.22091C7.59101 8.13794 7.65851 8.07044 7.74148 8.07044H8.24492C8.32789 8.07044 8.39539 8.13794 8.39539 8.22091V10.4695C8.39502 10.5092 8.379 10.5471 8.35082 10.575C8.32264 10.6029 8.28458 10.6186 8.24492 10.6186ZM8.41648 7.9031H7.56851C7.50523 7.9031 7.45039 7.86091 7.43211 7.80044L7.36742 7.57685C7.3407 7.48685 7.40961 7.39685 7.50383 7.39685H8.48117C8.57539 7.39685 8.64289 7.48685 8.61758 7.57685L8.55289 7.80044C8.53461 7.86091 8.47976 7.9031 8.41648 7.9031ZM7.56851 10.7873H8.41648C8.47976 10.7873 8.53461 10.8295 8.55289 10.89L8.61758 11.1136C8.64429 11.2036 8.57539 11.2936 8.48117 11.2936H7.50383C7.40961 11.2936 7.34211 11.2036 7.36742 11.1136L7.43211 10.89C7.45039 10.8281 7.50523 10.7873 7.56851 10.7873ZM10.4246 10.6186H9.92117C9.8382 10.6186 9.7707 10.5511 9.7707 10.4681V8.22091C9.7707 8.13794 9.8382 8.07044 9.92117 8.07044H10.4246C10.5076 8.07044 10.5751 8.13794 10.5751 8.22091V10.4695C10.5747 10.5092 10.5587 10.5471 10.5305 10.575C10.5023 10.6029 10.4643 10.6186 10.4246 10.6186ZM10.5962 7.9031H9.7482C9.68492 7.9031 9.63008 7.86091 9.61179 7.80044L9.54711 7.57685C9.52039 7.48685 9.5893 7.39685 9.68351 7.39685H10.6609C10.7551 7.39685 10.8226 7.48685 10.7973 7.57685L10.7326 7.80044C10.7143 7.86091 10.6595 7.9031 10.5962 7.9031ZM9.7482 10.7873H10.5962C10.6595 10.7873 10.7143 10.8295 10.7326 10.89L10.7973 11.1136C10.824 11.2036 10.7551 11.2936 10.6609 11.2936H9.68351C9.5893 11.2936 9.52179 11.2036 9.54711 11.1136L9.61179 10.89C9.63008 10.8281 9.68633 10.7873 9.7482 10.7873Z" fill="#FFF176"/>
</g>
<defs>
<clipPath id="clip0_151_2108">
<rect width="18" height="18" fill="white"/>
</clipPath>
</defs>
</svg>
