<svg width="17" height="16" viewBox="0 0 17 16" fill="none" xmlns="http://www.w3.org/2000/svg">
<g id="noto:coin" clip-path="url(#clip0_215_2793)">
<path id="Vector" d="M8.9366 15.4923C12.8965 15.4923 16.1066 12.2822 16.1066 8.32234C16.1066 4.36246 12.8965 1.15234 8.9366 1.15234C4.97672 1.15234 1.7666 4.36246 1.7666 8.32234C1.7666 12.2822 4.97672 15.4923 8.9366 15.4923Z" fill="#D68F30"/>
<path id="Vector_2" d="M2.25391 10.1848V10.9173C2.32891 11.1111 2.41266 11.3023 2.50391 11.4873V10.1848H2.25391ZM3.07141 11.5636V12.4436C3.17141 12.5848 3.27516 12.7236 3.38391 12.8573V11.5636H3.07141ZM4.15391 12.7136V13.6623C4.27516 13.7711 4.40016 13.8748 4.52891 13.9748V12.7136H4.15391ZM5.48641 13.5873V14.6073C5.60891 14.6748 5.73391 14.7386 5.86141 14.7998V13.5873H5.48641ZM6.99766 14.1436V15.2236C7.12141 15.2586 7.24641 15.2898 7.37266 15.3186V14.1436H6.99766ZM8.76641 14.3361V15.4873C8.82266 15.4886 8.87891 15.4911 8.93641 15.4911C9.00516 15.4911 9.07391 15.4873 9.14141 15.4861V14.3361H8.76641V14.3361ZM10.5352 14.1348V15.3098C10.6614 15.2811 10.7864 15.2486 10.9102 15.2136V14.1348H10.5352V14.1348ZM12.0427 13.5711V14.7848C12.1702 14.7236 12.2952 14.6573 12.4177 14.5886V13.5711H12.0427ZM13.3714 12.6898V13.9523C13.5001 13.8518 13.6252 13.7467 13.7464 13.6373V12.6898H13.3714ZM14.8227 11.5361H14.5102V12.8298C14.6189 12.6948 14.7239 12.5561 14.8227 12.4136V11.5361ZM15.6352 10.1523H15.3852V11.4573C15.4764 11.2686 15.5602 11.0748 15.6352 10.8786V10.1523Z" fill="#BC6F00"/>
<path id="Vector_3" d="M8.9366 14.8473C12.8965 14.8473 16.1066 11.6372 16.1066 7.67732C16.1066 3.71744 12.8965 0.507324 8.9366 0.507324C4.97672 0.507324 1.7666 3.71744 1.7666 7.67732C1.7666 11.6372 4.97672 14.8473 8.9366 14.8473Z" fill="#FFF176"/>
<path id="Vector_4" d="M8.93652 14.209C12.5436 14.209 15.4678 11.2848 15.4678 7.67773C15.4678 4.07062 12.5436 1.14648 8.93652 1.14648C5.32941 1.14648 2.40527 4.07062 2.40527 7.67773C2.40527 11.2848 5.32941 14.209 8.93652 14.209Z" fill="#F2BC1A"/>
<path id="Vector_5" d="M2.39258 7.92754C2.34633 7.06754 2.49508 6.19504 2.79508 5.37754C3.10758 4.56254 3.58633 3.80879 4.19008 3.16879C5.40258 1.88629 7.16258 1.14254 8.93633 1.13379C10.7101 1.14379 12.4713 1.88629 13.6813 3.17004C14.2863 3.80879 14.7638 4.56379 15.0763 5.37754C15.3776 6.19629 15.5263 7.06754 15.4788 7.92754H15.4538C15.4514 7.06962 15.2815 6.22041 14.9538 5.42754C14.6256 4.63556 14.1462 3.91507 13.5426 3.30629C12.9386 2.69811 12.2208 2.21475 11.4301 1.88379C10.6397 1.55377 9.79163 1.38384 8.93508 1.38384C8.07853 1.38384 7.2305 1.55377 6.44008 1.88379C5.6494 2.21475 4.93159 2.69811 4.32758 3.30629C3.72353 3.91474 3.24414 4.63531 2.91633 5.42754C2.58863 6.22041 2.41879 7.06962 2.41633 7.92754H2.39258V7.92754Z" fill="#E08F00"/>
<path id="Vector_6" d="M8.9366 0.508789C4.9766 0.508789 1.7666 3.71879 1.7666 7.67879C1.7666 11.6388 4.9766 14.8488 8.9366 14.8488C12.8966 14.8488 16.1066 11.6388 16.1066 7.67879C16.1066 3.71879 12.8966 0.508789 8.9366 0.508789ZM8.9366 14.21C5.3291 14.21 2.40535 11.2863 2.40535 7.67879C2.40535 4.07004 5.3291 1.14629 8.9366 1.14629C12.5441 1.14629 15.4679 4.07004 15.4679 7.67754C15.4679 11.285 12.5441 14.21 8.9366 14.21Z" fill="#FFF176"/>
<path id="Vector_7" d="M5.68514 2.66895L5.84389 3.1602L6.36139 2.9627V3.1602L5.94264 3.46395L6.10264 3.75645V3.9552L5.68514 3.65145L5.26639 3.9552V3.75645L5.42639 3.46395L5.00889 3.1602V2.9627L5.52514 3.1602L5.68514 2.66895ZM3.68764 5.48895L3.84764 5.9802L4.36389 5.7827V5.9802L3.94639 6.28395L4.10639 6.5777V6.7752L3.68764 6.47145L3.27014 6.7752V6.5777L3.43014 6.28395L3.01139 5.9802V5.7827L3.52889 5.9802L3.68764 5.48895ZM3.62889 8.9652L3.78889 9.45645L4.30514 9.25895V9.45645L3.88764 9.7602L4.04764 10.0539V10.2514L3.62889 9.9477L3.21139 10.2514V10.0539L3.37139 9.7602L2.95264 9.45645V9.25895L3.47014 9.45645L3.62889 8.9652ZM5.76139 11.7252L5.92139 12.2164L6.43764 12.0189V12.2164L6.02014 12.5202L6.18014 12.8127V13.0114L5.76139 12.7077L5.34389 13.0114V12.8127L5.50389 12.5202L5.08514 12.2164V12.0189L5.60264 12.2164L5.76139 11.7252ZM12.1876 2.66895L12.0289 3.1602L11.5114 2.9627V3.1602L11.9301 3.46395L11.7701 3.75645V3.9552L12.1876 3.65145L12.6064 3.9552V3.75645L12.4464 3.46395L12.8639 3.1602V2.9627L12.3476 3.1602L12.1876 2.66895ZM14.1851 5.48895L14.0251 5.9802L13.5089 5.7827V5.9802L13.9264 6.28395L13.7664 6.5777V6.7752L14.1851 6.47145L14.6026 6.7752V6.5777L14.4426 6.28395L14.8614 5.9802V5.7827L14.3439 5.9802L14.1851 5.48895ZM14.2439 8.9652L14.0839 9.45645L13.5676 9.25895V9.45645L13.9851 9.7602L13.8251 10.0539V10.2514L14.2439 9.9477L14.6614 10.2514V10.0539L14.5014 9.7602L14.9201 9.45645V9.25895L14.4026 9.45645L14.2439 8.9652ZM12.1114 11.7252L11.9514 12.2164L11.4351 12.0189V12.2164L11.8526 12.5202L11.6926 12.8127V13.0114L12.1114 12.7077L12.5289 13.0114V12.8127L12.3689 12.5202L12.7876 12.2164V12.0189L12.2701 12.2164L12.1114 11.7252Z" fill="#D38200"/>
<path id="Vector_8" d="M12.1113 11.5265L12.2701 12.0177H12.7876L12.3688 12.3215L12.5288 12.8127L12.1113 12.509L11.6926 12.8127L11.8526 12.3215L11.4351 12.0177H11.9513L12.1113 11.5265ZM14.2438 8.76771L14.4026 9.25896H14.9201L14.5013 9.56271L14.6613 10.054L14.2438 9.75021L13.8251 10.054L13.9851 9.56271L13.5676 9.25896H14.0838L14.2438 8.76771ZM14.1851 5.29147L14.3438 5.78271H14.8613L14.4426 6.08646L14.6026 6.57771L14.1851 6.27396L13.7663 6.57771L13.9263 6.08646L13.5088 5.78271H14.0251L14.1851 5.29147ZM12.1876 2.47021L12.3476 2.96146H12.8638L12.4463 3.26521L12.6063 3.75646L12.1876 3.45271L11.7701 3.75646L11.9301 3.26521L11.5113 2.96146H12.0288L12.1876 2.47021Z" fill="#FFF176"/>
<path id="Vector_9" d="M8.94285 12.8125L9.10285 13.3038L9.6191 13.1062V13.3038L9.2016 13.6075L9.3616 13.9012V14.0988L8.94285 13.795L8.52535 14.0988V13.9012L8.68535 13.6075L8.2666 13.3038V13.1062L8.7841 13.3038L8.94285 12.8125Z" fill="#D38200"/>
<path id="Vector_10" d="M8.94285 12.5498L9.10285 13.0411H9.6191L9.2016 13.3448L9.3616 13.8361L8.94285 13.5323L8.52535 13.8361L8.68535 13.3448L8.2666 13.0411H8.7841L8.94285 12.5498Z" fill="#FFF176"/>
<path id="Vector_11" d="M8.94285 1.61133L9.10285 2.10258L9.6191 1.90508V2.10258L9.2016 2.40633L9.3616 2.70008V2.89758L8.94285 2.59383L8.52535 2.89758V2.70008L8.68535 2.40633L8.2666 2.10258V1.90508L8.7841 2.10258L8.94285 1.61133Z" fill="#D38200"/>
<path id="Vector_12" d="M8.94264 1.41357L9.10264 1.90482H9.61889L9.20139 2.20857L9.36139 2.69982L8.94264 2.39607L8.52514 2.69982L8.68514 2.20857L8.26639 1.90482H8.78389L8.94264 1.41357ZM5.76139 11.5261L5.60264 12.0173H5.08514L5.50389 12.3211L5.34389 12.8123L5.76139 12.5086L6.18014 12.8123L6.02014 12.3211L6.43764 12.0173H5.92139L5.76139 11.5261ZM3.62889 8.76732L3.47014 9.25857H2.95264L3.37139 9.56232L3.21139 10.0536L3.62889 9.74982L4.04764 10.0536L3.88764 9.56232L4.30514 9.25857H3.78889L3.62889 8.76732ZM3.68764 5.29107L3.52889 5.78232H3.01139L3.43014 6.08607L3.27014 6.57732L3.68764 6.27357L4.10639 6.57732L3.94639 6.08607L4.36389 5.78232H3.84764L3.68764 5.29107ZM5.68514 2.46982L5.52514 2.96107H5.00889L5.42639 3.26482L5.26639 3.75607L5.68514 3.45232L6.10264 3.75607L5.94264 3.26482L6.36139 2.96107H5.84389L5.68514 2.46982Z" fill="#FFF176"/>
<path id="Vector_13" d="M12.8392 6.02482C12.8392 5.98107 5.0417 6.02482 5.0417 6.02482L4.9717 6.23482V6.59357C4.9717 6.65857 5.0242 6.71107 5.0892 6.71107H12.7842C12.8492 6.71107 12.9017 6.65857 12.9017 6.59357V6.24482L12.8392 6.02482ZM12.8504 10.6873H5.0742L4.5542 10.9486L4.56045 11.2848C4.5617 11.3211 4.5917 11.3511 4.6292 11.3511H13.2454C13.2817 11.3511 13.3129 11.3223 13.3142 11.2848L13.3204 10.9548L12.8504 10.6873Z" fill="#D38200"/>
<path id="Vector_14" d="M6.3277 9.6652H5.8802C5.80645 9.6652 5.74645 9.4327 5.74645 9.35895L6.4602 9.33645C6.4602 9.4102 6.4002 9.6652 6.3277 9.6652V9.6652ZM6.4802 7.25145H5.72645C5.6702 7.25145 5.62145 7.21395 5.6052 7.1602L5.54645 6.66895H6.6502L6.6002 7.1602C6.5852 7.21395 6.53645 7.25145 6.4802 7.25145ZM5.72645 9.81395H6.4802C6.53645 9.81395 6.6477 9.84895 6.6627 9.9027C6.6627 9.9027 6.65895 10.1364 6.65895 10.2289C6.65895 10.3214 6.62145 10.3889 6.5377 10.3889H5.66895C5.5852 10.3889 5.5477 10.3139 5.5477 10.2289C5.5477 10.1439 5.54395 9.9052 5.54395 9.9052C5.5602 9.85145 5.6702 9.81395 5.72645 9.81395V9.81395ZM12.1402 9.6652H11.6927C11.6189 9.6652 11.5589 9.4327 11.5589 9.35895L12.2727 9.33645C12.2727 9.4102 12.2139 9.6652 12.1402 9.6652V9.6652ZM12.2927 7.25145H11.5389C11.4827 7.25145 11.4339 7.21395 11.4177 7.1602L11.3589 6.66895H12.4627L12.4127 7.1602C12.3977 7.21395 12.3489 7.25145 12.2927 7.25145ZM11.5389 9.81395H12.2927C12.3489 9.81395 12.4602 9.84895 12.4752 9.9027C12.4752 9.9027 12.4714 10.1364 12.4714 10.2289C12.4714 10.3214 12.4339 10.3889 12.3502 10.3889H11.4814C11.3977 10.3889 11.3602 10.3139 11.3602 10.2289C11.3602 10.1439 11.3564 9.9052 11.3564 9.9052C11.3727 9.85145 11.4827 9.81395 11.5389 9.81395V9.81395ZM10.2027 9.6652H9.7552C9.68145 9.6652 9.62145 9.4327 9.62145 9.35895L10.3352 9.33645C10.3352 9.4102 10.2764 9.6652 10.2027 9.6652V9.6652ZM10.3552 7.25145H9.60145C9.5452 7.25145 9.49645 7.21395 9.4802 7.1602L9.42145 6.66895H10.5252L10.4752 7.1602C10.4602 7.21395 10.4114 7.25145 10.3552 7.25145ZM9.60145 9.81395H10.3552C10.4114 9.81395 10.5227 9.84895 10.5377 9.9027C10.5377 9.9027 10.5339 10.1364 10.5339 10.2289C10.5339 10.3214 10.4964 10.3889 10.4127 10.3889H9.54395C9.4602 10.3889 9.4227 10.3139 9.4227 10.2289C9.4227 10.1439 9.41895 9.9052 9.41895 9.9052C9.4352 9.85145 9.5452 9.81395 9.60145 9.81395V9.81395ZM8.2652 9.6652H7.8177C7.74395 9.6652 7.68395 9.4327 7.68395 9.35895L8.3977 9.33645C8.3977 9.4102 8.33895 9.6652 8.2652 9.6652V9.6652ZM8.4177 7.25145H7.66395C7.6077 7.25145 7.55895 7.21395 7.5427 7.1602L7.48395 6.66895H8.5877L8.5377 7.1602C8.5227 7.21395 8.47395 7.25145 8.4177 7.25145ZM7.66395 9.81395H8.4177C8.47395 9.81395 8.5852 9.84895 8.6002 9.9027C8.6002 9.9027 8.59645 10.1364 8.59645 10.2289C8.59645 10.3214 8.55895 10.3889 8.4752 10.3889H7.60645C7.5227 10.3889 7.4852 10.3139 7.4852 10.2289C7.4852 10.1439 7.48145 9.9052 7.48145 9.9052C7.4977 9.85145 7.6077 9.81395 7.66395 9.81395V9.81395Z" fill="#D38200"/>
<path id="Vector_15" d="M12.8954 5.69006C12.8954 5.64631 12.8729 5.60506 12.8392 5.58506L8.94168 3.37256L5.03918 5.58256C5.00168 5.60506 4.97793 5.64631 4.97793 5.69006L4.97168 6.23631C4.97168 6.30506 5.02793 6.36131 5.09668 6.36131H12.7754C12.8442 6.36131 12.9004 6.30506 12.9004 6.23631L12.8954 5.69006V5.69006Z" fill="#FFF176"/>
<path id="Vector_16" d="M11.9165 5.54135L8.93654 3.8501L5.95654 5.54135H11.9165Z" fill="#F2BC1A"/>
<path id="Vector_17" d="M10.8204 5.33514L8.93665 4.26514L7.0529 5.33514H10.8204ZM12.6104 10.2526H5.2629C5.1904 10.2526 5.12164 10.2839 5.07289 10.3376L4.56789 10.9014C4.53289 10.9401 4.56039 11.0014 4.61289 11.0014H13.2604C13.3116 11.0014 13.3391 10.9401 13.3054 10.9014L12.7991 10.3376C12.7516 10.2839 12.6816 10.2526 12.6104 10.2526V10.2526ZM12.1404 9.43889H11.6929C11.6191 9.43889 11.5591 9.37889 11.5591 9.30514V7.30764C11.5591 7.23389 11.6191 7.17389 11.6929 7.17389H12.1404C12.2141 7.17389 12.2741 7.23389 12.2741 7.30764V9.30639C12.2741 9.38014 12.2141 9.43889 12.1404 9.43889ZM12.2941 7.02514H11.5404C11.4841 7.02514 11.4354 6.98764 11.4191 6.93389L11.3616 6.73514C11.3379 6.65514 11.3991 6.57514 11.4829 6.57514H12.3516C12.4354 6.57514 12.4954 6.65514 12.4729 6.73514L12.4154 6.93389C12.3991 6.98764 12.3491 7.02514 12.2941 7.02514V7.02514ZM11.5391 9.58889H12.2929C12.3491 9.58889 12.3979 9.62639 12.4141 9.68014L12.4716 9.87889C12.4954 9.95889 12.4341 10.0389 12.3504 10.0389H11.4816C11.3979 10.0389 11.3379 9.95889 11.3604 9.87889L11.4179 9.68014C11.4341 9.62514 11.4841 9.58889 11.5391 9.58889V9.58889ZM6.3279 9.43889H5.88039C5.80664 9.43889 5.74664 9.37889 5.74664 9.30514V7.30764C5.74664 7.23389 5.80664 7.17389 5.88039 7.17389H6.3279C6.40165 7.17389 6.46165 7.23389 6.46165 7.30764V9.30639C6.4604 9.38014 6.4004 9.43889 6.3279 9.43889ZM6.48039 7.02514H5.72665C5.6704 7.02514 5.62164 6.98764 5.60539 6.93389L5.54789 6.73514C5.52414 6.65514 5.5854 6.57514 5.66915 6.57514H6.5379C6.62165 6.57514 6.68164 6.65514 6.65914 6.73514L6.60164 6.93389C6.58539 6.98764 6.53664 7.02514 6.48039 7.02514ZM5.72665 9.58889H6.48039C6.53664 9.58889 6.58539 9.62639 6.60164 9.68014L6.65914 9.87889C6.68289 9.95889 6.62165 10.0389 6.5379 10.0389H5.66915C5.5854 10.0389 5.52539 9.95889 5.54789 9.87889L5.60539 9.68014C5.62164 9.62514 5.6704 9.58889 5.72665 9.58889ZM8.2654 9.43889H7.8179C7.74415 9.43889 7.68415 9.37889 7.68415 9.30514V7.30764C7.68415 7.23389 7.74415 7.17389 7.8179 7.17389H8.2654C8.33915 7.17389 8.39915 7.23389 8.39915 7.30764V9.30639C8.39882 9.34164 8.38458 9.37534 8.35953 9.40016C8.33448 9.42497 8.30065 9.43889 8.2654 9.43889V9.43889ZM8.4179 7.02514H7.66415C7.6079 7.02514 7.55914 6.98764 7.54289 6.93389L7.4854 6.73514C7.46165 6.65514 7.5229 6.57514 7.60665 6.57514H8.4754C8.55915 6.57514 8.61915 6.65514 8.59665 6.73514L8.53915 6.93389C8.5229 6.98764 8.47415 7.02514 8.4179 7.02514ZM7.66415 9.58889H8.4179C8.47415 9.58889 8.5229 9.62639 8.53915 9.68014L8.59665 9.87889C8.6204 9.95889 8.55915 10.0389 8.4754 10.0389H7.60665C7.5229 10.0389 7.4629 9.95889 7.4854 9.87889L7.54289 9.68014C7.55914 9.62514 7.6079 9.58889 7.66415 9.58889ZM10.2029 9.43889H9.7554C9.68165 9.43889 9.62165 9.37889 9.62165 9.30514V7.30764C9.62165 7.23389 9.68165 7.17389 9.7554 7.17389H10.2029C10.2766 7.17389 10.3366 7.23389 10.3366 7.30764V9.30639C10.3363 9.34164 10.3221 9.37534 10.297 9.40016C10.272 9.42497 10.2382 9.43889 10.2029 9.43889V9.43889ZM10.3554 7.02514H9.60165C9.5454 7.02514 9.49665 6.98764 9.4804 6.93389L9.4229 6.73514C9.39915 6.65514 9.4604 6.57514 9.54415 6.57514H10.4129C10.4966 6.57514 10.5566 6.65514 10.5341 6.73514L10.4766 6.93389C10.4604 6.98764 10.4116 7.02514 10.3554 7.02514V7.02514ZM9.60165 9.58889H10.3554C10.4116 9.58889 10.4604 9.62639 10.4766 9.68014L10.5341 9.87889C10.5579 9.95889 10.4966 10.0389 10.4129 10.0389H9.54415C9.4604 10.0389 9.4004 9.95889 9.4229 9.87889L9.4804 9.68014C9.49665 9.62514 9.54665 9.58889 9.60165 9.58889V9.58889Z" fill="#FFF176"/>
</g>
<defs>
<clipPath id="clip0_215_2793">
<rect width="16" height="16" fill="white" transform="translate(0.936523)"/>
</clipPath>
</defs>
</svg>
