<svg width="78" height="53" viewBox="0 0 78 53" fill="none" xmlns="http://www.w3.org/2000/svg">
<g id="logos:treasuredata-icon" clip-path="url(#clip0_64_22585)">
<path id="Vector" d="M41.664 51.5891L76.8688 16.3791C77.2203 16.0288 77.4992 15.6124 77.6895 15.1541C77.8798 14.6957 77.9777 14.2043 77.9777 13.708C77.9777 13.2117 77.8798 12.7202 77.6895 12.2619C77.4992 11.8035 77.2203 11.3872 76.8688 11.0368L67.6215 1.78433C67.0574 1.21849 66.3872 0.769585 65.6492 0.463384C64.9113 0.157183 64.1201 -0.000290055 63.3212 4.01073e-07H14.7074C13.9078 0.00016556 13.116 0.157827 12.3773 0.463984C11.6386 0.770141 10.9675 1.2188 10.4022 1.78433L1.12263 11.0529C0.414132 11.7471 0.010385 12.6943 0.000183991 13.6862C-0.00964812 14.6781 0.374928 15.6333 1.06932 16.3417L1.12263 16.395L36.3274 51.6053C36.6778 51.9567 37.0941 52.2356 37.5524 52.4258C38.0108 52.6161 38.5022 52.7141 38.9984 52.7141C39.4947 52.7141 39.9861 52.6161 40.4445 52.4258C40.9028 52.2356 41.3191 51.9567 41.6695 51.6053L41.664 51.5891Z" fill="url(#paint0_linear_64_22585)"/>
<path id="Vector_2" opacity="0.4" d="M10.1187 2.06731C10.7445 1.4384 11.5171 0.975282 12.3667 0.719757C13.2164 0.464232 14.1163 0.42435 14.9852 0.603713L76.1207 13.0027C76.6061 13.103 77.0319 13.3915 77.3052 13.805C77.5785 14.2184 77.677 14.7233 77.5791 15.2092C77.5537 15.336 77.5143 15.4596 77.4615 15.5777C77.88 14.8622 78.0488 14.0278 77.9414 13.2059C77.8341 12.3839 77.4567 11.6209 76.8685 11.0368L67.6212 1.78433C67.0572 1.21849 66.3869 0.769585 65.649 0.463384C64.911 0.157183 64.1199 -0.000290055 63.3209 4.01073e-07H14.7071C13.0922 0.000467769 11.5437 0.642293 10.4019 1.78433L10.1187 2.06761V2.06731Z" fill="url(#paint1_linear_64_22585)"/>
<path id="Vector_3" opacity="0.4" d="M64.5123 2.70849L60.9546 9.93659L76.1205 13.0027C76.6059 13.103 77.0319 13.3914 77.3052 13.8049C77.5786 14.2184 77.6771 14.7233 77.5792 15.2092C77.5538 15.336 77.5144 15.4596 77.4617 15.5777C77.8801 14.8622 78.0489 14.0278 77.9415 13.2059C77.8342 12.3839 77.4568 11.6209 76.8686 11.0368L67.6213 1.78434C67.0573 1.21849 66.387 0.769591 65.6491 0.46339C64.9111 0.157189 64.12 -0.000283784 63.321 6.672e-06H62.851C63.1695 -0.000846545 63.4829 0.0801458 63.7611 0.235216C64.0393 0.390287 64.273 0.614234 64.4397 0.88558C64.6065 1.15693 64.7008 1.46657 64.7135 1.78481C64.7262 2.10306 64.6569 2.41923 64.5123 2.70301V2.70849Z" fill="url(#paint2_linear_64_22585)"/>
<path id="Vector_4" d="M77.4615 15.5991C77.6582 15.1443 77.6663 14.6299 77.484 14.1691C77.3017 13.7083 76.9439 13.3388 76.4892 13.1416C76.3711 13.089 76.2475 13.0496 76.1207 13.0244L60.9541 9.93604L40.5473 51.1189C40.2832 51.6526 39.8375 52.0748 39.2902 52.3098C38.743 52.5447 38.13 52.577 37.561 52.4009C38.2487 52.6855 39.0053 52.7602 39.7354 52.6157C40.4655 52.4712 41.1365 52.1139 41.664 51.5889L76.8681 16.3792C77.1027 16.1493 77.3027 15.8866 77.4615 15.5991Z" fill="url(#paint3_linear_64_22585)"/>
</g>
<defs>
<linearGradient id="paint0_linear_64_22585" x1="21.8556" y1="34.1455" x2="39.3752" y2="3.79583" gradientUnits="userSpaceOnUse">
<stop stop-color="#8855FF"/>
<stop offset="1" stop-color="#00B6FF"/>
</linearGradient>
<linearGradient id="paint1_linear_64_22585" x1="43.5016" y1="7.92346" x2="44.0673" y2="5.58693" gradientUnits="userSpaceOnUse">
<stop offset="0.07" stop-color="white"/>
<stop offset="0.89" stop-color="#009FFF"/>
</linearGradient>
<linearGradient id="paint2_linear_64_22585" x1="64.2507" y1="34.6706" x2="81.7272" y2="49.6141" gradientUnits="userSpaceOnUse">
<stop offset="0.07" stop-color="white"/>
<stop offset="0.89" stop-color="#009FFF"/>
</linearGradient>
<linearGradient id="paint3_linear_64_22585" x1="41.973" y1="26.8066" x2="68.1583" y2="35.8726" gradientUnits="userSpaceOnUse">
<stop stop-color="#4036C1"/>
<stop offset="0.98" stop-color="#539EFF"/>
</linearGradient>
<clipPath id="clip0_64_22585">
<rect width="77.977" height="53" fill="white"/>
</clipPath>
</defs>
</svg>
