<svg width="13" height="13" viewBox="0 0 13 13" fill="none" xmlns="http://www.w3.org/2000/svg">
<path id="Vector" d="M12.999 3.191C12.949 2.40527 12.7804 1.76709 12.2333 1.10973C11.1377 -0.204382 8.61891 -0.423162 7.49236 0.841967C7.29582 1.02809 7.11051 1.25218 6.92398 1.51994L6.50274 2.12587L6.0809 1.51994C5.89395 1.25218 5.70803 1.02789 5.5115 0.841967C4.38372 -0.423162 1.8653 -0.204586 0.768537 1.10973C0.22077 1.76709 0.052399 2.40527 0.00219383 3.191C-0.0692363 5.52697 1.6259 7.39742 1.83509 7.6715C2.98552 9.02112 4.24045 10.2973 5.51476 11.473C5.74538 11.6749 5.94457 11.843 6.14375 12.0096C6.26355 12.1073 6.38172 12.2061 6.5007 12.3032C6.61948 12.2059 6.73724 12.1071 6.85642 12.0096C7.05622 11.8432 7.25562 11.6749 7.48542 11.473C8.76034 10.2973 10.0155 9.02194 11.1651 7.6715C11.3745 7.39742 13.0696 5.52697 12.9978 3.191" fill="#FF6066"/>
</svg>
