<svg width="17" height="17" viewBox="0 0 17 17" fill="none" xmlns="http://www.w3.org/2000/svg">
<g id="noto:star">
<path id="Vector" d="M9.03768 0.960235L10.8253 5.03758C10.8926 5.19103 10.9998 5.32361 11.1357 5.4215C11.2717 5.51938 11.4314 5.57898 11.5983 5.59406L15.9532 5.98453C16.446 6.05625 16.6425 6.66055 16.2853 7.00852L13.0048 9.76437C12.7392 9.9875 12.6183 10.3381 12.6913 10.6768L13.6449 15.1406C13.7286 15.6307 13.2146 16.0052 12.7737 15.7728L8.9726 13.5469C8.82924 13.4627 8.66602 13.4184 8.49979 13.4184C8.33355 13.4184 8.17033 13.4627 8.02697 13.5469L4.22588 15.7715C3.78627 16.0026 3.27096 15.6294 3.35463 15.1393L4.30822 10.6755C4.37994 10.3368 4.26041 9.98617 3.99479 9.76305L0.712989 7.00984C0.357051 6.6632 0.553614 6.05758 1.04502 5.98586L5.39994 5.59539C5.5668 5.58031 5.72654 5.52071 5.86251 5.42283C5.99847 5.32494 6.10567 5.19235 6.17291 5.03891L7.96057 0.961563C8.18236 0.515313 8.81721 0.515313 9.03768 0.960235Z" fill="#FDD835"/>
<path id="Vector_2" d="M8.90771 5.28192L8.6049 2.27771C8.59294 2.11036 8.55841 1.82349 8.82669 1.82349C9.03919 1.82349 9.15474 2.26575 9.15474 2.26575L10.0632 4.67763C10.4058 5.59536 10.2651 5.91013 9.93435 6.09606C9.55451 6.30856 8.99404 6.14255 8.90771 5.28192Z" fill="#FFFF8D"/>
<path id="Vector_3" d="M12.6542 9.4975L15.2599 7.46414C15.3888 7.35656 15.6212 7.18523 15.4353 6.99C15.2878 6.83594 14.8894 7.05773 14.8894 7.05773L12.609 7.9489C11.929 8.18398 11.4774 8.53195 11.4376 8.97023C11.3858 9.55461 11.9104 10.0048 12.6542 9.4975Z" fill="#F4B400"/>
</g>
</svg>
