<svg width="16" height="16" viewBox="0 0 16 16" fill="none" xmlns="http://www.w3.org/2000/svg">
<path id="Vector" d="M8.50643 0.725127L10.2941 4.80247C10.3613 4.95592 10.4685 5.08851 10.6045 5.18639C10.7405 5.28428 10.9002 5.34387 11.0671 5.35896L15.422 5.74942C15.9147 5.82114 16.1113 6.42544 15.754 6.77341L12.4735 9.52927C12.2079 9.75239 12.0871 10.103 12.1601 10.4417L13.1137 14.9055C13.1974 15.3956 12.6834 15.7701 12.2424 15.5377L8.44135 13.3118C8.29799 13.2276 8.13477 13.1833 7.96854 13.1833C7.8023 13.1833 7.63909 13.2276 7.49572 13.3118L3.69463 15.5364C3.25502 15.7675 2.73971 15.3943 2.82338 14.9042L3.77697 10.4404C3.84869 10.1017 3.72916 9.75107 3.46354 9.52794L0.181739 6.77474C-0.174199 6.4281 0.0223635 5.82247 0.51377 5.75075L4.86869 5.36028C5.03555 5.3452 5.19529 5.2856 5.33126 5.18772C5.46722 5.08983 5.57442 4.95725 5.64166 4.8038L7.42932 0.726455C7.65111 0.280205 8.28596 0.280205 8.50643 0.725127Z" fill="#FDD835"/>
</svg>
