<svg width="16" height="14" viewBox="0 0 16 14" fill="none" xmlns="http://www.w3.org/2000/svg">
<g id="menu">
<path id="Vector 356 (Stroke)" fill-rule="evenodd" clip-rule="evenodd" d="M0 0.75C0 0.335786 0.335786 0 0.75 0H9.75C10.1642 0 10.5 0.335786 10.5 0.75C10.5 1.16421 10.1642 1.5 9.75 1.5H0.75C0.335786 1.5 0 1.16421 0 0.75Z" fill="white"/>
<path id="Vector 360 (Stroke)" fill-rule="evenodd" clip-rule="evenodd" d="M0 12.75C0 12.3358 0.335786 12 0.75 12H6.75C7.16421 12 7.5 12.3358 7.5 12.75C7.5 13.1642 7.16421 13.5 6.75 13.5H0.75C0.335786 13.5 0 13.1642 0 12.75Z" fill="white"/>
<path id="Vector 357 (Stroke)" fill-rule="evenodd" clip-rule="evenodd" d="M0 6.75C0 6.33579 0.335786 6 0.75 6H14.75C15.1642 6 15.5 6.33579 15.5 6.75C15.5 7.16421 15.1642 7.5 14.75 7.5H0.75C0.335786 7.5 0 7.16421 0 6.75Z" fill="white"/>
</g>
</svg>
