<svg width="28" height="28" viewBox="0 0 28 28" fill="none" xmlns="http://www.w3.org/2000/svg">
<g id="uil:setting">
<path id="Vector" d="M21.4068 14.5109C21.2599 14.3467 21.1789 14.1356 21.1789 13.917C21.1789 13.6984 21.2599 13.4873 21.4068 13.3231L22.5793 12.0272C22.7086 11.8857 22.7888 11.7075 22.8085 11.5184C22.8283 11.3292 22.7865 11.1388 22.6893 10.9744L20.8571 7.86082C20.7608 7.69661 20.6142 7.56644 20.4382 7.48888C20.2622 7.41132 20.0658 7.39032 19.8769 7.42887L18.1547 7.77083C17.9355 7.81531 17.7074 7.77946 17.5133 7.67004C17.3192 7.56063 17.1726 7.38522 17.1012 7.17691L16.5423 5.53013C16.4809 5.3514 16.3638 5.19616 16.2076 5.08635C16.0515 4.97655 15.8641 4.91773 15.6721 4.91822H12.0077C11.808 4.90797 11.6103 4.96224 11.4449 5.07274C11.2794 5.18323 11.1554 5.34388 11.0916 5.53013L10.5786 7.17691C10.5072 7.38522 10.3606 7.56063 10.1665 7.67004C9.97243 7.77946 9.74429 7.81531 9.52515 7.77083L7.75711 7.42887C7.57806 7.40402 7.39553 7.43177 7.23251 7.50864C7.06949 7.5855 6.93327 7.70804 6.84102 7.86082L5.00885 10.9744C4.90915 11.137 4.86432 11.3263 4.88077 11.5154C4.89722 11.7045 4.97412 11.8837 5.10046 12.0272L6.26389 13.3231C6.41075 13.4873 6.49175 13.6984 6.49175 13.917C6.49175 14.1356 6.41075 14.3467 6.26389 14.5109L5.10046 15.8067C4.97412 15.9503 4.89722 16.1295 4.88077 16.3186C4.86432 16.5077 4.90915 16.697 5.00885 16.8596L6.84102 19.9732C6.9373 20.1374 7.08389 20.2675 7.2599 20.3451C7.43591 20.4227 7.63236 20.4437 7.82123 20.4051L9.54347 20.0632C9.76261 20.0187 9.99075 20.0545 10.1848 20.1639C10.3789 20.2734 10.5255 20.4488 10.597 20.6571L11.1558 22.3039C11.2195 22.4901 11.3436 22.6508 11.509 22.7612C11.6744 22.8717 11.8721 22.926 12.0719 22.9158H15.7362C15.9282 22.9163 16.1156 22.8574 16.2718 22.7476C16.4279 22.6378 16.545 22.4826 16.6065 22.3039L17.1653 20.6571C17.2367 20.4488 17.3833 20.2734 17.5774 20.1639C17.7715 20.0545 17.9996 20.0187 18.2188 20.0632L19.941 20.4051C20.1299 20.4437 20.3263 20.4227 20.5023 20.3451C20.6784 20.2675 20.825 20.1374 20.9212 19.9732L22.7534 16.8596C22.8507 16.6952 22.8924 16.5048 22.8727 16.3156C22.8529 16.1265 22.7727 15.9483 22.6435 15.8067L21.4068 14.5109ZM20.0418 15.7167L20.7747 16.5266L19.6021 18.5244L18.5211 18.3084C17.8613 18.1759 17.175 18.286 16.5924 18.6178C16.0098 18.9495 15.5714 19.4799 15.3606 20.1081L15.0125 21.116H12.6673L12.3375 20.0902C12.1267 19.4619 11.6884 18.9315 11.1058 18.5998C10.5232 18.268 9.83682 18.1579 9.17703 18.2904L8.09606 18.5064L6.90515 16.5176L7.63801 15.7077C8.08869 15.2128 8.33784 14.572 8.33784 13.908C8.33784 13.2439 8.08869 12.6032 7.63801 12.1082L6.90515 11.2983L8.07773 9.31862L9.15871 9.53459C9.8185 9.66707 10.5048 9.55698 11.0874 9.22521C11.67 8.89344 12.1084 8.36309 12.3192 7.73483L12.6673 6.71797H15.0125L15.3606 7.74383C15.5714 8.37209 16.0098 8.90244 16.5924 9.23421C17.175 9.56598 17.8613 9.67607 18.5211 9.54359L19.6021 9.32762L20.7747 11.3253L20.0418 12.1352C19.5962 12.6291 19.3501 13.2661 19.3501 13.926C19.3501 14.5859 19.5962 15.2229 20.0418 15.7167ZM13.8399 10.3175C13.1152 10.3175 12.4067 10.5286 11.8041 10.9241C11.2015 11.3196 10.7318 11.8818 10.4545 12.5395C10.1772 13.1972 10.1046 13.921 10.246 14.6192C10.3874 15.3175 10.7364 15.9588 11.2488 16.4622C11.7613 16.9656 12.4142 17.3085 13.125 17.4473C13.8358 17.5862 14.5726 17.5149 15.2422 17.2425C15.9117 16.9701 16.484 16.5087 16.8867 15.9168C17.2893 15.3248 17.5042 14.6289 17.5042 13.917C17.5042 12.9623 17.1182 12.0468 16.431 11.3718C15.7438 10.6967 14.8117 10.3175 13.8399 10.3175ZM13.8399 15.7167C13.4775 15.7167 13.1233 15.6112 12.822 15.4134C12.5207 15.2157 12.2859 14.9346 12.1472 14.6057C12.0085 14.2769 11.9722 13.915 12.0429 13.5659C12.1136 13.2168 12.2881 12.8961 12.5444 12.6444C12.8006 12.3927 13.1271 12.2213 13.4825 12.1518C13.8379 12.0824 14.2063 12.118 14.541 12.2542C14.8758 12.3905 15.162 12.6211 15.3633 12.9171C15.5646 13.2131 15.6721 13.561 15.6721 13.917C15.6721 14.3943 15.479 14.8521 15.1354 15.1896C14.7918 15.5271 14.3258 15.7167 13.8399 15.7167Z" fill="#F9F9F9"/>
</g>
</svg>
