<svg width="31" height="30" viewBox="0 0 31 30" fill="none" xmlns="http://www.w3.org/2000/svg">
<g id="Apple">
<path id="Vector" d="M27.5759 23.3791C27.1253 24.4272 26.5918 25.392 25.9737 26.279C25.1312 27.4882 24.4414 28.3253 23.9098 28.7901C23.0857 29.553 22.2027 29.9437 21.2572 29.9659C20.5784 29.9659 19.7598 29.7715 18.807 29.3771C17.851 28.9845 16.9724 28.7901 16.1691 28.7901C15.3266 28.7901 14.423 28.9845 13.4565 29.3771C12.4886 29.7715 11.7088 29.9771 11.1126 29.9974C10.2059 30.0363 9.30218 29.6345 8.40008 28.7901C7.82432 28.2845 7.10414 27.4179 6.24141 26.1901C5.31577 24.8791 4.55476 23.3587 3.95857 21.6255C3.32008 19.7533 3 17.9404 3 16.1853C3 14.1748 3.43155 12.4407 4.29594 10.9876C4.97527 9.82044 5.87903 8.89973 7.01015 8.22383C8.14126 7.54792 9.36344 7.20349 10.6796 7.18145C11.3998 7.18145 12.3442 7.4057 13.5178 7.84643C14.6881 8.28864 15.4395 8.51289 15.769 8.51289C16.0153 8.51289 16.8501 8.25068 18.2652 7.72792C19.6035 7.24312 20.7329 7.04238 21.6582 7.12145C24.1655 7.32515 26.0491 8.32012 27.3019 10.1127C25.0595 11.4804 23.9503 13.3961 23.9723 15.8536C23.9926 17.7678 24.6824 19.3607 26.0381 20.6255C26.6525 21.2125 27.3386 21.6662 28.102 21.9884C27.9365 22.4717 27.7617 22.9347 27.5759 23.3791ZM21.8256 0.600167C21.8256 2.10051 21.2811 3.50138 20.1958 4.798C18.8861 6.33944 17.3019 7.23015 15.5839 7.0896C15.5621 6.90961 15.5494 6.72017 15.5494 6.5211C15.5494 5.08077 16.1722 3.53934 17.2783 2.27901C17.8305 1.64088 18.5329 1.11028 19.3846 0.687016C20.2344 0.270066 21.0383 0.0394803 21.7943 0C21.8164 0.200568 21.8256 0.401173 21.8256 0.600167Z" fill="white"/>
</g>
</svg>
