<svg width="111" height="54" viewBox="0 0 111 54" fill="none" xmlns="http://www.w3.org/2000/svg">
<g id="Frame 64">
<rect x="0.5" width="110" height="54" rx="11" fill="#312F2F"/>
<path id="Vector" d="M68.2848 13.9259L65.8536 15.7816L55.5024 23.297L45.1511 15.7073L42.72 13.8517C42.1472 13.3888 41.4481 13.1002 40.7091 13.0217C39.9702 12.9433 39.2239 13.0783 38.5627 13.4102C37.9016 13.7421 37.3546 14.2561 36.9896 14.8888C36.6246 15.5214 36.4575 16.2447 36.5092 16.9692V38.4763C36.5092 39.1456 36.7813 39.7875 37.2657 40.2608C37.7502 40.7341 38.4072 41 39.0923 41H45.1511V26.6743L55.5024 34.264L65.8536 26.6743V41H71.9125C72.5975 41 73.2546 40.7341 73.739 40.2608C74.2234 39.7875 74.4955 39.1456 74.4955 38.4763V16.9692C74.5312 16.251 74.3525 15.5381 73.9813 14.9172C73.61 14.2964 73.0622 13.7942 72.4043 13.4719C71.7464 13.1495 71.0069 13.0208 70.2756 13.1014C69.5442 13.182 68.8526 13.4685 68.2848 13.9259Z" fill="white"/>
</g>
</svg>
