<svg width="18" height="18" viewBox="0 0 18 18" fill="none" xmlns="http://www.w3.org/2000/svg">
<g id="question">
<path id="Rectangle 1283 (Stroke)" fill-rule="evenodd" clip-rule="evenodd" d="M17.75 14.2C17.75 16.1606 16.1606 17.75 14.2 17.75H3.8C1.83939 17.75 0.25 16.1606 0.25 14.2V3.8C0.25 1.83939 1.83939 0.25 3.8 0.25H14.2C16.1606 0.25 17.75 1.83939 17.75 3.8V14.2ZM14.2 16.25C15.3322 16.25 16.25 15.3322 16.25 14.2V3.8C16.25 2.66782 15.3322 1.75 14.2 1.75H3.8C2.66782 1.75 1.75 2.66782 1.75 3.8V14.2C1.75 15.3322 2.66782 16.25 3.8 16.25H14.2Z" fill="white"/>
<path id="Vector 513 (Stroke)" fill-rule="evenodd" clip-rule="evenodd" d="M6.25 6.88034C6.25 5.32313 7.68116 4.25 9.19446 4.25H9.29712C9.61913 4.25 9.94005 4.30684 10.2407 4.41925C11.0141 4.70841 11.5523 5.31654 11.7061 6.04346C11.8616 6.77858 11.6033 7.54974 10.9616 8.08289L10.3049 8.62852C10.0092 8.87424 9.87192 9.18403 9.87192 9.47627V10C9.87192 10.4142 9.53613 10.75 9.12192 10.75C8.70771 10.75 8.37192 10.4142 8.37192 10V9.47627C8.37192 8.69475 8.7424 7.97659 9.34631 7.47481L10.003 6.92918C10.2306 6.74006 10.2751 6.52655 10.2385 6.35384C10.2003 6.17292 10.0518 5.95005 9.71535 5.82425C9.58646 5.77606 9.44377 5.75 9.29712 5.75H9.19446C8.28382 5.75 7.75 6.36058 7.75 6.88034V6.98347C7.75 7.39768 7.41421 7.73347 7 7.73347C6.58579 7.73347 6.25 7.39768 6.25 6.98347V6.88034Z" fill="white"/>
<path id="Ellipse 7" d="M8 12C8 11.4477 8.44772 11 9 11C9.55228 11 10 11.4477 10 12C10 12.5523 9.55228 13 9 13C8.44772 13 8 12.5523 8 12Z" fill="white"/>
</g>
</svg>
