<svg width="31" height="30" viewBox="0 0 31 30" fill="none" xmlns="http://www.w3.org/2000/svg">
<g id="Group">
<g id="Group_2">
<path id="Vector" fill-rule="evenodd" clip-rule="evenodd" d="M15.5085 0.00404677C17.5843 0.00404677 19.6603 -0.00556261 21.7361 0.00680068C23.6891 0.0184608 25.5233 0.463832 27.1125 1.65109C29.1879 3.20157 30.25 5.31947 30.4476 7.87506C30.5173 8.77448 30.4956 9.68172 30.4968 10.5854C30.5015 14.0898 30.4989 17.5943 30.4985 21.0989C30.4984 22.5302 30.2993 23.9277 29.6936 25.2365C28.465 27.8915 26.3218 29.3429 23.4942 29.8459C22.9046 29.9508 22.2963 29.9899 21.6965 29.9917C17.5559 30.0039 13.4152 30.0011 9.27458 29.9968C7.12141 29.9946 5.15213 29.426 3.47398 28.0291C1.76899 26.61 0.869282 24.7539 0.589409 22.5778C0.541128 22.2024 0.511567 21.8218 0.511216 21.4436C0.507173 17.0909 0.480894 12.7379 0.52355 8.38565C0.54687 6.00774 1.33865 3.89942 3.10882 2.23814C4.57715 0.860248 6.36195 0.140277 8.34532 0.0698183C10.7302 -0.0149083 13.1204 0.0497499 15.5084 0.0497499C15.5084 0.0344862 15.5084 0.0192519 15.5085 0.00404677ZM15.485 27.2281C17.4825 27.2281 19.4799 27.2361 21.4772 27.2226C21.9996 27.219 22.5295 27.1931 23.0421 27.1004C24.9999 26.7464 26.4884 25.7644 27.2685 23.8581C27.6648 22.8897 27.7942 21.8506 27.8111 20.8441C27.8766 16.9397 27.8397 13.0335 27.8351 9.128C27.8346 8.7049 27.83 8.27708 27.7701 7.8596C27.5017 5.98495 26.689 4.44841 24.9637 3.51402C24.0008 2.9925 22.9554 2.7956 21.8688 2.79525C17.6843 2.79402 13.4998 2.79279 9.31534 2.7978C8.93717 2.79827 8.55567 2.81918 8.18149 2.87177C6.05026 3.17101 4.48044 4.22136 3.69482 6.28779C3.37777 7.12167 3.27646 7.99544 3.27628 8.88258C3.27567 12.9667 3.27174 17.0506 3.28165 21.1348C3.28285 21.6344 3.32011 22.1413 3.40956 22.6323C3.80632 24.8106 5.021 26.3079 7.18425 26.9099C7.90513 27.1105 8.67573 27.199 9.42611 27.2141C11.4451 27.2547 13.4653 27.2279 15.485 27.2281Z" fill="white"/>
<path id="Vector_2" fill-rule="evenodd" clip-rule="evenodd" d="M23.2315 14.9521C23.2296 19.2229 19.745 22.6966 15.473 22.6862C11.1995 22.6758 7.75786 19.2263 7.75537 14.9509C7.75288 10.6803 11.2323 7.20628 15.5074 7.21094C19.7457 7.21551 23.2334 10.7109 23.2315 14.9521ZM15.4964 19.8979C18.2212 19.9 20.4654 17.6574 20.4607 14.9372C20.456 12.2359 18.2175 9.99318 15.5148 9.98219C12.7939 9.97115 10.5508 12.2068 10.5451 14.9355C10.5393 17.6681 12.7619 19.8958 15.4964 19.8979Z" fill="white"/>
<path id="Vector_3" fill-rule="evenodd" clip-rule="evenodd" d="M23.5183 8.76964C22.5509 8.76099 21.7884 7.98691 21.7915 7.01674C21.7946 6.03556 22.5762 5.26625 23.5631 5.27299C24.5195 5.27961 25.2988 6.06893 25.2959 7.02799C25.293 8.00065 24.4992 8.7784 23.5183 8.76964Z" fill="white"/>
</g>
</g>
</svg>
