<svg width="12" height="16" viewBox="0 0 12 16" fill="none" xmlns="http://www.w3.org/2000/svg">
<g id="shield_tick">
<path id="Subtract" fill-rule="evenodd" clip-rule="evenodd" d="M7.58452 1.83256C6.93416 0.500149 5.066 0.500149 4.41564 1.83256C4.27046 2.12999 3.96757 2.29686 3.65892 2.2671L3.04797 2.2082C1.4897 2.05797 0.166748 3.31179 0.166748 4.88159V9.72667C0.166748 10.5153 0.506945 11.2669 1.10142 11.7786L4.30142 14.5332C5.28242 15.3777 6.71774 15.3777 7.69874 14.5332L10.8987 11.7786C11.4932 11.2669 11.8334 10.5153 11.8334 9.72667V4.88159C11.8334 3.31179 10.5105 2.05797 8.9522 2.2082L8.34124 2.2671C8.03259 2.29686 7.7297 2.12999 7.58452 1.83256ZM8.34901 7.0247C8.54679 6.83199 8.55091 6.51543 8.3582 6.31765C8.16549 6.11987 7.84893 6.11576 7.65115 6.30847L5.27748 8.62127L4.36306 7.65605C4.17314 7.45558 3.85668 7.44703 3.65621 7.63694C3.45574 7.82686 3.44719 8.14332 3.6371 8.34379L4.90026 9.67712C4.9923 9.77427 5.11944 9.83048 5.25324 9.83315C5.38704 9.83583 5.51632 9.78476 5.61217 9.69137L8.34901 7.0247Z" fill="#12D075"/>
</g>
</svg>
