<svg width="18" height="18" viewBox="0 0 18 18" fill="none" xmlns="http://www.w3.org/2000/svg">
<g id="Settings">
<path id="Ellipse 105 (Stroke)" fill-rule="evenodd" clip-rule="evenodd" d="M9 8.03662C8.46794 8.03662 8.03662 8.46794 8.03662 9C8.03662 9.53206 8.46794 9.96338 9 9.96338C9.53206 9.96338 9.96338 9.53206 9.96338 9C9.96338 8.46794 9.53206 8.03662 9 8.03662ZM6.53662 9C6.53662 7.63951 7.63951 6.53662 9 6.53662C10.3605 6.53662 11.4634 7.63951 11.4634 9C11.4634 10.3605 10.3605 11.4634 9 11.4634C7.63951 11.4634 6.53662 10.3605 6.53662 9Z" fill="white"/>
<path id="Star 8 (Stroke)" fill-rule="evenodd" clip-rule="evenodd" d="M6.93142 1.90344C7.4294 -0.301151 10.5706 -0.301143 11.0686 1.90344L11.1823 2.40666C11.2767 2.82485 11.7566 3.02363 12.1191 2.79472L12.5553 2.51926C14.4663 1.31251 16.6875 3.53368 15.4807 5.44469L15.2053 5.88089C14.9764 6.24339 15.1752 6.72328 15.5933 6.81775L16.0966 6.93142C18.3012 7.4294 18.3011 10.5706 16.0966 11.0686L15.5933 11.1823C15.1752 11.2767 14.9764 11.7566 15.2053 12.1191L15.4807 12.5553C16.6875 14.4663 14.4663 16.6875 12.5553 15.4807L12.1191 15.2053C11.7566 14.9764 11.2767 15.1752 11.1823 15.5933L11.0686 16.0966C10.5706 18.3012 7.4294 18.3011 6.93142 16.0966L6.81775 15.5933C6.72328 15.1752 6.24339 14.9764 5.88089 15.2053L5.44468 15.4807C3.53368 16.6875 1.31251 14.4663 2.51927 12.5553L2.79472 12.1191C3.02363 11.7566 2.82485 11.2767 2.40666 11.1823L1.90344 11.0686C-0.301151 10.5706 -0.301143 7.4294 1.90344 6.93142L2.40666 6.81775C2.82485 6.72328 3.02363 6.24339 2.79472 5.88089L2.51926 5.44468C1.31251 3.53368 3.53368 1.31252 5.44469 2.51927L5.88089 2.79472C6.24339 3.02363 6.72328 2.82485 6.81775 2.40666L6.93142 1.90344ZM9.60545 2.23394C9.45969 1.58868 8.54031 1.58869 8.39455 2.23394L8.28088 2.73716C7.95814 4.16595 6.31852 4.84511 5.07999 4.06301L4.64379 3.78756C4.08446 3.43436 3.43436 4.08447 3.78756 4.64379L4.06301 5.07999C4.84511 6.31852 4.16595 7.95814 2.73716 8.28088L2.23394 8.39455C1.58868 8.54031 1.58869 9.4597 2.23394 9.60545L2.73716 9.71912C4.16595 10.0419 4.84511 11.6815 4.06301 12.92L3.78756 13.3562C3.43436 13.9155 4.08446 14.5656 4.64379 14.2124L5.07999 13.937C6.31852 13.1549 7.95814 13.834 8.28088 15.2628L8.39455 15.7661C8.54031 16.4113 9.4597 16.4113 9.60545 15.7661L9.71912 15.2628C10.0419 13.834 11.6815 13.1549 12.92 13.937L13.3562 14.2124C13.9155 14.5656 14.5656 13.9155 14.2124 13.3562L13.937 12.92C13.1549 11.6815 13.834 10.0419 15.2628 9.71912L15.7661 9.60545C16.4113 9.45969 16.4113 8.54031 15.7661 8.39455L15.2628 8.28088C13.834 7.95814 13.1549 6.31852 13.937 5.07999L14.2124 4.64379C14.5656 4.08446 13.9155 3.43436 13.3562 3.78756L12.92 4.06301C11.6815 4.84511 10.0419 4.16595 9.71912 2.73716L9.60545 2.23394Z" fill="white"/>
</g>
</svg>
