<svg width="25" height="24" viewBox="0 0 25 24" fill="none" xmlns="http://www.w3.org/2000/svg">
<path id="Vector" d="M18.5002 1.60787C20.3102 2.6529 21.8158 4.1525 22.8681 5.95823C23.9203 7.76396 24.4827 9.8132 24.4996 11.9031C24.5165 13.993 23.9873 16.051 22.9643 17.8735C21.9413 19.696 20.4601 21.2197 18.6673 22.2939C16.8745 23.368 14.8322 23.9553 12.7427 23.9975C10.6531 24.0398 8.58876 23.5357 6.75394 22.535C4.91913 21.5343 3.37748 20.0717 2.28162 18.2921C1.18576 16.5125 0.573692 14.4775 0.506 12.3887L0.5 11.9999L0.506 11.6111C0.573205 9.53866 1.17627 7.51902 2.25639 5.74906C3.33651 3.9791 4.85684 2.51921 6.66915 1.51173C8.48145 0.504246 10.5239 -0.0164529 12.5974 0.000396295C14.6708 0.0172455 16.7045 0.571068 18.5002 1.60787ZM12.5001 4.79987C12.2062 4.79991 11.9225 4.90782 11.7029 5.10313C11.4832 5.29844 11.3429 5.56757 11.3085 5.85947L11.3001 5.99987V11.9999L11.3109 12.1571C11.3383 12.3653 11.4198 12.5626 11.5473 12.7295L11.6517 12.8495L15.2518 16.4495L15.3646 16.5479C15.575 16.7111 15.8338 16.7998 16.1002 16.7998C16.3666 16.7998 16.6254 16.7111 16.8358 16.5479L16.9486 16.4483L17.0482 16.3355C17.2115 16.125 17.3001 15.8662 17.3001 15.5999C17.3001 15.3335 17.2115 15.0747 17.0482 14.8643L16.9486 14.7515L13.7002 11.5019V5.99987L13.6918 5.85947C13.6574 5.56757 13.517 5.29844 13.2974 5.10313C13.0778 4.90782 12.7941 4.79991 12.5001 4.79987Z" fill="black"/>
</svg>
